<?xml version="1.0" encoding="UTF-8" standalone="no"?>
<svg
   class="svg-icon"
   style="overflow:hidden;fill:currentColor"
   viewBox="0 0 767.59998 767.59998"
   version="1.1"
   id="svg3137"
   sodipodi:docname="download_white.svg"
   width="767.59998"
   height="767.59998"
   inkscape:version="1.2.2 (b0a8486541, 2022-12-01)"
   xmlns:inkscape="http://www.inkscape.org/namespaces/inkscape"
   xmlns:sodipodi="http://sodipodi.sourceforge.net/DTD/sodipodi-0.dtd"
   xmlns="http://www.w3.org/2000/svg"
   xmlns:svg="http://www.w3.org/2000/svg">
  <defs
     id="defs3141" />
  <sodipodi:namedview
     id="namedview3139"
     pagecolor="#ffffff"
     bordercolor="#cccccc"
     borderopacity="1"
     inkscape:showpageshadow="0"
     inkscape:pageopacity="1"
     inkscape:pagecheckerboard="0"
     inkscape:deskcolor="#d1d1d1"
     showgrid="false"
     inkscape:zoom="0.87597656"
     inkscape:cx="309.36901"
     inkscape:cy="389.85061"
     inkscape:window-width="2560"
     inkscape:window-height="1056"
     inkscape:window-x="0"
     inkscape:window-y="0"
     inkscape:window-maximized="1"
     inkscape:current-layer="svg3137" />
  <path
     d="m 383.8,60 c 43.7,0 86.1,8.6 126,25.4 38.6,16.3 73.2,39.7 102.9,69.4 29.7,29.7 53.1,64.4 69.4,102.9 16.9,39.9 25.4,82.3 25.4,126 0,43.7 -8.6,86.1 -25.4,126 -16.3,38.6 -39.7,73.2 -69.4,102.9 -29.7,29.7 -64.4,53.1 -102.9,69.4 -39.9,16.9 -82.3,25.4 -126,25.4 -43.7,0 -86.1,-8.6 -126,-25.4 C 219.2,665.7 184.6,642.3 154.9,612.6 125.2,582.9 101.8,548.2 85.5,509.7 68.6,469.8 60.1,427.4 60.1,383.7 c 0,-43.7 8.6,-86.1 25.4,-126 16.3,-38.6 39.7,-73.2 69.4,-102.9 29.7,-29.7 64.4,-53.1 102.9,-69.4 C 297.7,68.5 340.1,60 383.8,60 m 0,-60 C 171.8,0 0,171.8 0,383.8 c 0,212 171.8,383.8 383.8,383.8 212,0 383.8,-171.8 383.8,-383.8 C 767.6,171.8 595.8,0 383.8,0 Z"
     id="path3133"
     style="fill:#f2f2f2" />
  <g
     id="g4191"
     style="fill:#f2f2f2;fill-opacity:0.72549;stroke:#f2f2f2;stroke-opacity:1"
     transform="translate(627.02773,98.466421)">
    <path
       style="fill:#f2f2f2;fill-opacity:0.72549;stroke:#f2f2f2;stroke-width:50;stroke-linecap:round;stroke-linejoin:round;stroke-miterlimit:200;stroke-dasharray:none;stroke-opacity:1;paint-order:stroke markers fill"
       d="M -244.27853,72.166737 V 498.50042"
       id="path4090" />
    <path
       style="overflow:hidden;fill:#f2f2f2;fill-opacity:0.72549;stroke:#f2f2f2;stroke-width:50;stroke-linecap:round;stroke-linejoin:round;stroke-miterlimit:200;stroke-dasharray:none;stroke-opacity:1;paint-order:stroke markers fill"
       d="M -84.190733,340.51422 -242.17693,498.50042"
       id="path4090-3" />
    <path
       style="overflow:hidden;fill:#f2f2f2;fill-opacity:0.72549;stroke:#f2f2f2;stroke-width:50;stroke-linecap:round;stroke-linejoin:round;stroke-miterlimit:200;stroke-dasharray:none;stroke-opacity:1;paint-order:stroke markers fill"
       d="m -402.26473,340.51422 157.9862,157.9862"
       id="path4090-3-7" />
  </g>
</svg>
