<?xml version="1.0" encoding="UTF-8" standalone="no"?>
<!-- Uploaded to: SVG Repo, www.svgrepo.com, Generator: SVG Repo Mixer Tools -->

<svg
   fill="#000000"
   version="1.1"
   id="Capa_1"
   viewBox="0 0 487.116 487.116"
   xml:space="preserve"
   sodipodi:docname="garbage_red.svg"
   inkscape:version="1.2.2 (b0a8486541, 2022-12-01)"
   xmlns:inkscape="http://www.inkscape.org/namespaces/inkscape"
   xmlns:sodipodi="http://sodipodi.sourceforge.net/DTD/sodipodi-0.dtd"
   xmlns="http://www.w3.org/2000/svg"
   xmlns:svg="http://www.w3.org/2000/svg"><defs
   id="defs15" /><sodipodi:namedview
   id="namedview13"
   pagecolor="#ffffff"
   bordercolor="#cccccc"
   borderopacity="1"
   inkscape:showpageshadow="0"
   inkscape:pageopacity="1"
   inkscape:pagecheckerboard="0"
   inkscape:deskcolor="#d1d1d1"
   showgrid="false"
   inkscape:zoom="1.8414505"
   inkscape:cx="224.00819"
   inkscape:cy="243.558"
   inkscape:window-width="2560"
   inkscape:window-height="1056"
   inkscape:window-x="0"
   inkscape:window-y="0"
   inkscape:window-maximized="1"
   inkscape:current-layer="g10" />
<g
   id="g10">
	<polygon
   points="354.213,182.861 333.566,181.018 312.039,421.044 332.686,422.886  "
   id="polygon2"
   style="fill:#ff0000" />
	<rect
   x="233.194"
   y="181.94"
   width="20.728"
   height="240.026"
   id="rect4"
   style="fill:#ff0000" />
	<polygon
   points="175.078,421.044 153.55,181.018 132.902,182.861 154.431,422.886  "
   id="polygon6"
   style="fill:#ff0000" />
	<path
   d="M 440.446,65.222 H 327.617 C 325.365,28.948 288.518,0 243.558,0 198.588,0 161.741,28.948 159.489,65.222 H 46.669 c -5.728,0 -10.364,4.635 -10.364,10.364 v 51.547 c 0,5.728 4.636,10.364 10.364,10.364 h 18.537 l 30.935,340.195 c 0.486,5.334 4.96,9.423 10.324,9.423 H 380.64 c 5.365,0 9.839,-4.089 10.324,-9.423 L 421.9,137.497 h 18.547 c 5.729,0 10.364,-4.636 10.364,-10.364 V 75.586 c 0,-5.73 -4.635,-10.364 -10.365,-10.364 z M 371.177,466.387 H 115.929 L 86.021,137.518 H 401.086 Z M 243.558,20.728 c 33.42,0 60.879,19.656 63.268,44.493 H 180.28 c 2.389,-24.837 29.858,-44.493 63.278,-44.493 z m 186.524,96.041 H 57.033 V 85.95 h 373.049 z"
   id="path8"
   style="fill:#ff0000"
   sodipodi:nodetypes="scscssssccssccsssscccccsccsccccc" />
</g>
</svg>
